<?xml version="1.0" standalone="no"?>
<!DOCTYPE svg PUBLIC "-//W3C//DTD SVG 20010904//EN"
 "http://www.w3.org/TR/2001/REC-SVG-20010904/DTD/svg10.dtd">
<svg version="1.0" xmlns="http://www.w3.org/2000/svg"
 width="170.000000pt" height="50.000000pt" viewBox="0 0 170.000000 50.000000"
 preserveAspectRatio="xMidYMid meet">

<g transform="translate(0.000000,50.000000) scale(0.100000,-0.100000)"
fill="#000000" stroke="none">
<path d="M1410 323 c0 -4 5 -15 10 -23 7 -11 12 -12 21 -3 8 8 6 14 -10 22
-12 7 -21 8 -21 4z"/>
<path d="M762 308 c-17 -17 -15 -64 4 -82 28 -28 94 -15 94 18 0 5 -6 2 -13
-8 -19 -27 -54 -13 -62 25 -4 18 -2 36 5 44 10 12 10 15 -2 15 -8 0 -19 -5
-26 -12z"/>
<path d="M817 301 c7 -26 46 -29 41 -3 -2 9 -13 18 -25 20 -17 3 -20 -1 -16
-17z"/>
<path d="M1165 265 l0 -55 42 0 c24 0 43 4 43 9 0 4 -11 6 -25 3 -24 -4 -25
-2 -25 47 0 42 -3 51 -17 51 -15 0 -18 -9 -18 -55z"/>
<path d="M1377 313 c-4 -3 -7 -28 -7 -55 0 -39 3 -48 18 -48 13 0 17 8 15 37
-1 21 -2 46 -2 56 -1 17 -12 22 -24 10z"/>
<path d="M1461 302 c-7 -13 -11 -37 -9 -55 2 -26 8 -33 28 -35 18 -2 21 0 11
7 -9 6 -12 19 -9 37 3 16 2 38 -2 49 -7 19 -7 19 -19 -3z"/>
<path d="M881 262 c-13 -25 5 -52 34 -52 27 0 48 30 39 54 -3 9 -13 16 -21 16
-11 0 -13 -7 -8 -30 4 -19 3 -30 -4 -30 -10 0 -15 16 -14 48 1 18 -15 15 -26
-6z"/>
<path d="M970 269 c0 -5 5 -7 10 -4 6 3 10 8 10 11 0 2 -4 4 -10 4 -5 0 -10
-5 -10 -11z"/>
<path d="M989 253 c-7 -16 -15 -31 -17 -35 -2 -5 12 -8 32 -8 20 0 36 4 36 9
0 5 -10 7 -22 3 -22 -5 -22 -4 -7 14 29 34 31 44 11 44 -11 0 -25 -12 -33 -27z"/>
<path d="M1059 266 c6 -7 17 -31 24 -52 13 -36 15 -37 25 -18 17 33 -5 84 -36
84 -20 0 -22 -3 -13 -14z"/>
<path d="M1130 269 c0 -5 5 -7 10 -4 6 3 10 8 10 11 0 2 -4 4 -10 4 -5 0 -10
-5 -10 -11z"/>
<path d="M1277 273 c-4 -3 -7 -17 -7 -29 0 -30 44 -44 67 -21 18 17 9 57 -12
57 -11 0 -13 -8 -8 -30 3 -19 1 -30 -6 -30 -6 0 -11 14 -11 30 0 29 -9 38 -23
23z"/>
<path d="M1050 190 c0 -5 7 -10 15 -10 8 0 15 5 15 10 0 6 -7 10 -15 10 -8 0
-15 -4 -15 -10z"/>
</g>
</svg>
